<svg width="360" height="307" viewBox="0 0 360 307" fill="none" xmlns="http://www.w3.org/2000/svg">
<g filter="url(#filter0_d_6_2)">
<path d="M34.5154 38.9769C41.815 28.0817 66.147 6.29136 71.0134 7.01772C75.8798 7.74407 90.0336 31.223 98.5897 48.4193C106.703 64.726 114 92 114 92H28.0268C28.0268 92 27.2157 49.8721 34.5154 38.9769Z" fill="url(#paint0_linear_6_2)"/>
<path d="M34.9307 39.2552C38.5438 33.8623 46.4125 25.7252 54.0079 19.0139C57.8012 15.6621 61.5102 12.6804 64.5668 10.5852C66.0962 9.53679 67.4505 8.71853 68.563 8.18664C69.1192 7.9207 69.6045 7.73143 70.0137 7.61952C70.4286 7.50601 70.7325 7.48132 70.9396 7.51224C71.3999 7.58094 72.0618 7.9448 72.9192 8.67958C73.759 9.39923 74.7244 10.4197 75.788 11.6951C77.9139 14.2443 80.394 17.7651 82.9974 21.8127C88.2023 29.9052 93.8709 40.0578 98.1421 48.6421C102.181 56.7599 106.024 67.6251 108.861 76.4773C110.279 80.9 111.443 84.814 112.253 87.6222C112.658 89.0262 112.974 90.1536 113.189 90.9297C113.249 91.1482 113.302 91.3389 113.346 91.5H28.5192C28.5151 91.1903 28.5101 90.7397 28.5062 90.1652C28.4983 88.9942 28.4952 87.3088 28.5141 85.2519C28.5521 81.1376 28.6787 75.54 29.0329 69.6039C29.3872 63.6659 29.9687 57.3992 30.9146 51.9436C31.8645 46.4653 33.1699 41.8834 34.9307 39.2552Z" stroke="black"/>
</g>
<g filter="url(#filter1_d_6_2)">
<path d="M281.409 38.9769C274.024 28.0817 249.409 6.29136 244.486 7.01772C239.563 7.74407 225.245 31.223 216.589 48.4193C208.382 64.726 201 92 201 92H287.973C287.973 92 288.793 49.8721 281.409 38.9769Z" fill="url(#paint1_linear_6_2)"/>
<path d="M280.995 39.2574C277.34 33.8645 269.38 25.7272 261.696 19.0158C257.858 15.664 254.106 12.6821 251.014 10.5867C249.466 9.53823 248.096 8.71974 246.97 8.1876C246.407 7.92154 245.915 7.73203 245.501 7.6199C245.08 7.50622 244.771 7.48111 244.559 7.51236C244.091 7.58151 243.42 7.94689 242.553 8.68143C241.703 9.40127 240.726 10.4219 239.65 11.6973C237.499 14.2465 234.99 17.7674 232.357 21.815C227.091 29.9074 221.357 40.0599 217.036 48.6441C212.95 56.7618 209.062 67.6268 206.192 76.4789C204.759 80.9016 203.581 84.8156 202.762 87.6237C202.352 89.0277 202.032 90.155 201.815 90.9311C201.754 91.149 201.701 91.3392 201.656 91.5H287.481C287.485 91.1903 287.49 90.7397 287.494 90.1651C287.502 88.9942 287.505 87.3088 287.486 85.2519C287.447 81.1377 287.319 75.5402 286.961 69.6043C286.603 63.6664 286.014 57.3999 285.057 51.9445C284.096 46.4665 282.776 41.8852 280.995 39.2574Z" stroke="black"/>
</g>
<g filter="url(#filter2_i_6_2)">
<path d="M38.6971 53.9481C43.9596 46.1292 61.5013 30.4914 65.0097 31.0127C68.518 31.534 78.7219 48.3835 84.8903 60.7245C90.7395 72.4269 96 92 96 92H34.0193C34.0193 92 33.4346 61.767 38.6971 53.9481Z" fill="#FBBCBC"/>
</g>
<path d="M39.1119 54.2273C41.7063 50.3726 47.368 44.5426 52.8414 39.7283C55.5737 37.325 58.243 35.1892 60.4401 33.6899C61.5398 32.9395 62.5096 32.3567 63.3025 31.9793C63.6989 31.7907 64.0407 31.6584 64.3252 31.5809C64.6154 31.5019 64.8135 31.4891 64.9362 31.5073C65.2272 31.5505 65.6791 31.789 66.2937 32.3133C66.8908 32.8226 67.5811 33.5484 68.3454 34.4607C69.8726 36.2837 71.657 38.8049 73.5325 41.7076C77.2817 47.5101 81.3658 54.7915 84.443 60.948C87.3498 66.7636 90.1179 74.5525 92.1627 80.9039C93.184 84.0762 94.0229 86.8837 94.6064 88.898C94.8981 89.905 95.126 90.7136 95.2808 91.2701C95.3037 91.3523 95.325 91.429 95.3446 91.5H34.5121C34.5095 91.2897 34.5067 91.015 34.5045 90.6823C34.4988 89.8426 34.4965 88.6338 34.5102 87.1586C34.5375 84.2075 34.6287 80.193 34.8839 75.9361C35.1392 71.6772 35.558 67.1859 36.2387 63.2781C36.9233 59.3477 37.8607 56.0863 39.1119 54.2273Z" stroke="black"/>
<g filter="url(#filter3_i_6_2)">
<path d="M277.227 53.9481C271.88 46.1292 254.055 30.4914 250.49 31.0127C246.925 31.534 236.557 48.3835 230.289 60.7245C224.345 72.4269 219 92 219 92H281.98C281.98 92 282.575 61.767 277.227 53.9481Z" fill="#FBBCBC"/>
</g>
<path d="M276.814 54.2304C274.178 50.3756 268.425 44.5454 262.863 39.7309C260.087 37.3276 257.374 35.1915 255.141 33.692C254.023 32.9415 253.038 32.3584 252.231 31.9807C251.828 31.7918 251.48 31.6592 251.19 31.5814C250.894 31.5022 250.69 31.4888 250.563 31.5075C250.263 31.5513 249.801 31.7918 249.177 32.3158C248.57 32.8254 247.869 33.5514 247.092 34.4638C245.54 36.2868 243.727 38.808 241.821 41.7106C238.011 47.5132 233.862 54.7945 230.735 60.9509C227.781 66.7662 224.969 74.5548 222.891 80.9061C221.853 84.0784 221.001 86.8858 220.408 88.9001C220.111 89.9071 219.88 90.7156 219.722 91.2721C219.699 91.3535 219.678 91.4296 219.658 91.5H281.488C281.49 91.2897 281.493 91.0149 281.495 90.6822C281.501 89.8426 281.504 88.6338 281.49 87.1586C281.462 84.2077 281.369 80.1933 281.11 75.9365C280.851 71.6779 280.425 67.1868 279.733 63.2794C279.038 59.3494 278.085 56.0889 276.814 54.2304Z" stroke="black"/>
<g filter="url(#filter4_d_6_2)">
<rect x="21" y="92" width="274" height="156" rx="8" fill="#2ED4E9"/>
<rect x="21.5" y="92.5" width="273" height="155" rx="7.5" stroke="black"/>
</g>
<path d="M285.5 92.5H287C291.142 92.5 294.5 95.8579 294.5 100V243C294.5 245.485 292.485 247.5 290 247.5C287.515 247.5 285.5 245.485 285.5 243V92.5Z" fill="#058B9C" stroke="black"/>
<path d="M21.5 238.5H290C292.485 238.5 294.5 240.515 294.5 243C294.5 245.485 292.485 247.5 290 247.5H29C24.8579 247.5 21.5 244.142 21.5 240V238.5Z" fill="#058B9C" stroke="black"/>
<g filter="url(#filter5_d_6_2)">
<circle cx="108" cy="170" r="50" fill="#058B9C"/>
<circle cx="108" cy="170" r="49.5" stroke="black"/>
</g>
<circle cx="108" cy="170" r="29.5" fill="url(#paint2_linear_6_2)" stroke="black"/>
<path d="M50 133.5L54 120V156L50 142.5L43 138L50 133.5Z" fill="url(#paint3_linear_6_2)"/>
<path d="M58 133.5L54 120V156L58 142.5L65 138L58 133.5Z" fill="url(#paint4_linear_6_2)"/>
<path d="M162.773 192.205L165.5 183V207.545L162.773 198.341L158 195.273L162.773 192.205Z" fill="url(#paint5_linear_6_2)"/>
<path d="M168.227 192.205L165.5 183V207.545L168.227 198.341L173 195.273L168.227 192.205Z" fill="url(#paint6_linear_6_2)"/>
<g filter="url(#filter6_i_6_2)">
<rect x="212" y="120" width="52" height="17" rx="2" fill="white"/>
</g>
<rect x="212.5" y="120.5" width="51" height="16" rx="1.5" stroke="black"/>
<rect x="212.5" y="130.5" width="51" height="6" rx="1.5" fill="#EEEEEE" stroke="black"/>
<path d="M215.416 153.358C214.339 151.695 215.533 149.5 217.514 149.5H258.621C260.579 149.5 261.777 151.648 260.748 153.314L253.954 164.314C253.498 165.051 252.694 165.5 251.827 165.5H224.632C223.784 165.5 222.994 165.07 222.533 164.358L215.416 153.358Z" fill="white" stroke="black"/>
<g filter="url(#filter7_d_6_2)">
<path d="M294.5 166V180.5C302.333 179.167 308.5 180.5 315 187.5L315.123 187.632C318.361 191.117 327.019 200.433 328.5 219.191C329.999 238.171 318 259.191 284 266.191C250 273.191 243.5 251.691 176 241.191C153.5 237.691 141.5 241.191 126.5 252.691C120.443 257.335 111.512 261.691 108 280.691C108 297.191 110.662 301.731 125.5 290.191C139 279.691 164.167 277.857 184 278.691C224 277.691 290.6 313.691 335 267.691C352.178 249.894 349.685 231.109 349 217.691C346 198.191 340 185.5 329.5 177C319.552 168.947 307.5 166 294.5 166Z" fill="url(#paint7_linear_6_2)"/>
<path d="M294.5 166V180.5C302.333 179.167 308.5 180.5 315 187.5L315.123 187.632C318.361 191.117 327.019 200.433 328.5 219.191C329.999 238.171 318 259.191 284 266.191C250 273.191 243.5 251.691 176 241.191C153.5 237.691 141.5 241.191 126.5 252.691C120.443 257.335 111.512 261.691 108 280.691C108 297.191 110.662 301.731 125.5 290.191C139 279.691 164.167 277.857 184 278.691C224 277.691 290.6 313.691 335 267.691C352.178 249.894 349.685 231.109 349 217.691C346 198.191 340 185.5 329.5 177C319.552 168.947 307.5 166 294.5 166Z" stroke="black" stroke-linecap="round"/>
</g>
<defs>
<filter id="filter0_d_6_2" x="23" y="0" width="96" height="95" filterUnits="userSpaceOnUse" color-interpolation-filters="sRGB">
<feFlood flood-opacity="0" result="BackgroundImageFix"/>
<feColorMatrix in="SourceAlpha" type="matrix" values="0 0 0 0 0 0 0 0 0 0 0 0 0 0 0 0 0 0 127 0" result="hardAlpha"/>
<feOffset dy="-2"/>
<feGaussianBlur stdDeviation="2.5"/>
<feComposite in2="hardAlpha" operator="out"/>
<feColorMatrix type="matrix" values="0 0 0 0 0 0 0 0 0 0 0 0 0 0 0 0 0 0 0.25 0"/>
<feBlend mode="normal" in2="BackgroundImageFix" result="effect1_dropShadow_6_2"/>
<feBlend mode="normal" in="SourceGraphic" in2="effect1_dropShadow_6_2" result="shape"/>
</filter>
<filter id="filter1_d_6_2" x="196" y="0" width="97" height="95" filterUnits="userSpaceOnUse" color-interpolation-filters="sRGB">
<feFlood flood-opacity="0" result="BackgroundImageFix"/>
<feColorMatrix in="SourceAlpha" type="matrix" values="0 0 0 0 0 0 0 0 0 0 0 0 0 0 0 0 0 0 127 0" result="hardAlpha"/>
<feOffset dy="-2"/>
<feGaussianBlur stdDeviation="2.5"/>
<feComposite in2="hardAlpha" operator="out"/>
<feColorMatrix type="matrix" values="0 0 0 0 0 0 0 0 0 0 0 0 0 0 0 0 0 0 0.25 0"/>
<feBlend mode="normal" in2="BackgroundImageFix" result="effect1_dropShadow_6_2"/>
<feBlend mode="normal" in="SourceGraphic" in2="effect1_dropShadow_6_2" result="shape"/>
</filter>
<filter id="filter2_i_6_2" x="34" y="31" width="62" height="65" filterUnits="userSpaceOnUse" color-interpolation-filters="sRGB">
<feFlood flood-opacity="0" result="BackgroundImageFix"/>
<feBlend mode="normal" in="SourceGraphic" in2="BackgroundImageFix" result="shape"/>
<feColorMatrix in="SourceAlpha" type="matrix" values="0 0 0 0 0 0 0 0 0 0 0 0 0 0 0 0 0 0 127 0" result="hardAlpha"/>
<feOffset dy="4"/>
<feGaussianBlur stdDeviation="2"/>
<feComposite in2="hardAlpha" operator="arithmetic" k2="-1" k3="1"/>
<feColorMatrix type="matrix" values="0 0 0 0 0 0 0 0 0 0 0 0 0 0 0 0 0 0 0.25 0"/>
<feBlend mode="normal" in2="shape" result="effect1_innerShadow_6_2"/>
</filter>
<filter id="filter3_i_6_2" x="219" y="31" width="63" height="65" filterUnits="userSpaceOnUse" color-interpolation-filters="sRGB">
<feFlood flood-opacity="0" result="BackgroundImageFix"/>
<feBlend mode="normal" in="SourceGraphic" in2="BackgroundImageFix" result="shape"/>
<feColorMatrix in="SourceAlpha" type="matrix" values="0 0 0 0 0 0 0 0 0 0 0 0 0 0 0 0 0 0 127 0" result="hardAlpha"/>
<feOffset dy="4"/>
<feGaussianBlur stdDeviation="2"/>
<feComposite in2="hardAlpha" operator="arithmetic" k2="-1" k3="1"/>
<feColorMatrix type="matrix" values="0 0 0 0 0 0 0 0 0 0 0 0 0 0 0 0 0 0 0.25 0"/>
<feBlend mode="normal" in2="shape" result="effect1_innerShadow_6_2"/>
</filter>
<filter id="filter4_d_6_2" x="0" y="71" width="316" height="198" filterUnits="userSpaceOnUse" color-interpolation-filters="sRGB">
<feFlood flood-opacity="0" result="BackgroundImageFix"/>
<feColorMatrix in="SourceAlpha" type="matrix" values="0 0 0 0 0 0 0 0 0 0 0 0 0 0 0 0 0 0 127 0" result="hardAlpha"/>
<feMorphology radius="5" operator="dilate" in="SourceAlpha" result="effect1_dropShadow_6_2"/>
<feOffset/>
<feGaussianBlur stdDeviation="8"/>
<feComposite in2="hardAlpha" operator="out"/>
<feColorMatrix type="matrix" values="0 0 0 0 0 0 0 0 0 0 0 0 0 0 0 0 0 0 0.25 0"/>
<feBlend mode="normal" in2="BackgroundImageFix" result="effect1_dropShadow_6_2"/>
<feBlend mode="normal" in="SourceGraphic" in2="effect1_dropShadow_6_2" result="shape"/>
</filter>
<filter id="filter5_d_6_2" x="54" y="120" width="108" height="108" filterUnits="userSpaceOnUse" color-interpolation-filters="sRGB">
<feFlood flood-opacity="0" result="BackgroundImageFix"/>
<feColorMatrix in="SourceAlpha" type="matrix" values="0 0 0 0 0 0 0 0 0 0 0 0 0 0 0 0 0 0 127 0" result="hardAlpha"/>
<feOffset dy="4"/>
<feGaussianBlur stdDeviation="2"/>
<feComposite in2="hardAlpha" operator="out"/>
<feColorMatrix type="matrix" values="0 0 0 0 0 0 0 0 0 0 0 0 0 0 0 0 0 0 0.25 0"/>
<feBlend mode="normal" in2="BackgroundImageFix" result="effect1_dropShadow_6_2"/>
<feBlend mode="normal" in="SourceGraphic" in2="effect1_dropShadow_6_2" result="shape"/>
</filter>
<filter id="filter6_i_6_2" x="212" y="120" width="52" height="21" filterUnits="userSpaceOnUse" color-interpolation-filters="sRGB">
<feFlood flood-opacity="0" result="BackgroundImageFix"/>
<feBlend mode="normal" in="SourceGraphic" in2="BackgroundImageFix" result="shape"/>
<feColorMatrix in="SourceAlpha" type="matrix" values="0 0 0 0 0 0 0 0 0 0 0 0 0 0 0 0 0 0 127 0" result="hardAlpha"/>
<feOffset dy="4"/>
<feGaussianBlur stdDeviation="2"/>
<feComposite in2="hardAlpha" operator="arithmetic" k2="-1" k3="1"/>
<feColorMatrix type="matrix" values="0 0 0 0 0 0 0 0 0 0 0 0 0 0 0 0 0 0 0.25 0"/>
<feBlend mode="normal" in2="shape" result="effect1_innerShadow_6_2"/>
</filter>
<filter id="filter7_d_6_2" x="100.5" y="158.5" width="258.53" height="147.607" filterUnits="userSpaceOnUse" color-interpolation-filters="sRGB">
<feFlood flood-opacity="0" result="BackgroundImageFix"/>
<feColorMatrix in="SourceAlpha" type="matrix" values="0 0 0 0 0 0 0 0 0 0 0 0 0 0 0 0 0 0 127 0" result="hardAlpha"/>
<feOffset dx="1" dy="1"/>
<feGaussianBlur stdDeviation="4"/>
<feComposite in2="hardAlpha" operator="out"/>
<feColorMatrix type="matrix" values="0 0 0 0 0 0 0 0 0 0 0 0 0 0 0 0 0 0 0.25 0"/>
<feBlend mode="normal" in2="BackgroundImageFix" result="effect1_dropShadow_6_2"/>
<feBlend mode="normal" in="SourceGraphic" in2="effect1_dropShadow_6_2" result="shape"/>
</filter>
<linearGradient id="paint0_linear_6_2" x1="71" y1="7" x2="71" y2="92" gradientUnits="userSpaceOnUse">
<stop stop-color="#A5A5A5"/>
<stop offset="1" stop-color="#DDDDDD"/>
</linearGradient>
<linearGradient id="paint1_linear_6_2" x1="244.5" y1="7" x2="244.5" y2="92" gradientUnits="userSpaceOnUse">
<stop stop-color="#A0A0A0"/>
<stop offset="1" stop-color="#D9D9D9"/>
</linearGradient>
<linearGradient id="paint2_linear_6_2" x1="117.375" y1="152" x2="89.25" y2="192.5" gradientUnits="userSpaceOnUse">
<stop offset="0.140625" stop-color="#F0F0F0"/>
<stop offset="0.916667" stop-color="#70BEF5"/>
</linearGradient>
<linearGradient id="paint3_linear_6_2" x1="48.75" y1="147.5" x2="60.65" y2="123.7" gradientUnits="userSpaceOnUse">
<stop stop-color="#FCFF79"/>
<stop offset="0.369118" stop-color="#F6F7EF"/>
<stop offset="0.655396" stop-color="#FCFF79"/>
<stop offset="0.9999" stop-color="#FBFF23" stop-opacity="0.390625"/>
</linearGradient>
<linearGradient id="paint4_linear_6_2" x1="59.25" y1="147.5" x2="47.35" y2="123.7" gradientUnits="userSpaceOnUse">
<stop stop-color="#FCFF79"/>
<stop offset="0.369118" stop-color="#F6F7EF"/>
<stop offset="0.655396" stop-color="#FCFF79"/>
<stop offset="0.9999" stop-color="#FBFF23" stop-opacity="0.390625"/>
</linearGradient>
<linearGradient id="paint5_linear_6_2" x1="161.92" y1="201.75" x2="170.034" y2="185.523" gradientUnits="userSpaceOnUse">
<stop stop-color="#FCFF79"/>
<stop offset="0.369118" stop-color="#F6F7EF"/>
<stop offset="0.655396" stop-color="#FCFF79"/>
<stop offset="0.9999" stop-color="#FBFF23" stop-opacity="0.390625"/>
</linearGradient>
<linearGradient id="paint6_linear_6_2" x1="169.08" y1="201.75" x2="160.966" y2="185.523" gradientUnits="userSpaceOnUse">
<stop stop-color="#FCFF79"/>
<stop offset="0.369118" stop-color="#F6F7EF"/>
<stop offset="0.655396" stop-color="#FCFF79"/>
<stop offset="0.9999" stop-color="#FBFF23" stop-opacity="0.390625"/>
</linearGradient>
<linearGradient id="paint7_linear_6_2" x1="302" y1="205.5" x2="173" y2="254" gradientUnits="userSpaceOnUse">
<stop stop-color="#D9D9D9"/>
<stop offset="1" stop-color="#919191"/>
</linearGradient>
</defs>
</svg>
