<svg width="215" height="179" viewBox="0 0 215 179" fill="none" xmlns="http://www.w3.org/2000/svg">
<g filter="url(#filter0_d_17_72)">
<path d="M28.5696 24.9093C32.6579 18.8072 46.2856 6.60311 49.0111 7.00992C51.7366 7.41673 59.6637 20.5666 64.4558 30.1978C68.9999 39.3307 73.0867 54.6061 73.0867 54.6061H24.9355C24.9355 54.6061 24.4813 31.0114 28.5696 24.9093Z" fill="url(#paint0_linear_17_72)"/>
<path d="M28.985 25.1876C30.9924 22.1914 35.3821 17.6491 39.6324 13.8935C41.7532 12.0196 43.8231 10.3559 45.5249 9.18939C46.3769 8.60533 47.125 8.15404 47.7336 7.86305C48.0379 7.71756 48.2969 7.61723 48.5092 7.55914C48.7274 7.49947 48.8639 7.4935 48.9373 7.50444C49.1299 7.5332 49.4604 7.70072 49.9354 8.10771C50.3926 8.49957 50.9245 9.06084 51.5163 9.7705C52.6986 11.1882 54.082 13.1515 55.538 15.4152C58.4481 19.9398 61.619 25.6188 64.0082 30.4205C66.2625 34.9515 68.4109 41.0236 69.9991 45.9794C70.7922 48.4539 71.4436 50.644 71.8967 52.2152C72.1232 53.0007 72.3001 53.6313 72.4203 54.0653C72.4241 54.0791 72.4279 54.0927 72.4316 54.1061H25.4286C25.427 53.9598 25.4254 53.7826 25.424 53.577C25.4196 52.9222 25.4178 51.9794 25.4284 50.8287C25.4497 48.5268 25.5205 45.3956 25.7185 42.0758C25.9167 38.754 26.2418 35.2533 26.7696 32.2092C27.3014 29.1424 28.0269 26.6176 28.985 25.1876Z" stroke="black"/>
</g>
<g filter="url(#filter1_d_17_72)">
<path d="M166.848 24.9093C162.712 18.8072 148.926 6.60311 146.168 7.00992C143.411 7.41673 135.392 20.5666 130.544 30.1978C125.947 39.3307 121.813 54.6061 121.813 54.6061H170.524C170.524 54.6061 170.983 31.0114 166.848 24.9093Z" fill="url(#paint1_linear_17_72)"/>
<path d="M166.434 25.1899C164.403 22.1935 159.962 17.6511 155.662 13.8954C153.517 12.0214 151.423 10.3576 149.701 9.1909C148.839 8.60678 148.082 8.15525 147.465 7.86401C147.157 7.7184 146.895 7.61782 146.679 7.55953C146.458 7.49968 146.318 7.49329 146.241 7.50457C146.043 7.53378 145.708 7.70281 145.227 8.10956C144.765 8.50161 144.227 9.06301 143.628 9.77268C142.432 11.1904 141.032 13.1538 139.559 15.4174C136.615 19.942 133.408 25.621 130.991 30.4226C128.71 34.9533 126.537 41.0253 124.93 45.981C124.128 48.4555 123.469 50.6455 123.011 52.2166C122.782 53.0022 122.603 53.6328 122.481 54.0668C122.477 54.0801 122.474 54.0932 122.47 54.1061H170.031C170.033 53.9598 170.034 53.7826 170.036 53.5769C170.04 52.9222 170.042 51.9794 170.031 50.8287C170.01 48.5269 169.938 45.3959 169.738 42.0761C169.537 38.7545 169.208 35.254 168.674 32.2102C168.137 29.1437 167.403 26.6194 166.434 25.1899Z" stroke="black"/>
</g>
<g filter="url(#filter2_i_17_72)">
<path d="M30.9117 33.2943C33.859 28.9151 43.6836 20.1569 45.6486 20.4488C47.6135 20.7408 53.3284 30.1777 56.7831 37.0895C60.0591 43.6438 63.0054 54.6061 63.0054 54.6061H28.2918C28.2918 54.6061 27.9643 37.6734 30.9117 33.2943Z" fill="#FBBCBC"/>
</g>
<path d="M31.3265 33.5735C32.7633 31.4387 35.9169 28.1885 38.9788 25.4953C40.5053 24.1527 41.9928 22.9627 43.2133 22.13C43.8246 21.7128 44.3573 21.3933 44.787 21.1888C45.0018 21.0866 45.1804 21.0181 45.323 20.9793C45.4714 20.9389 45.5488 20.9395 45.5751 20.9434C45.6732 20.958 45.8861 21.0555 46.2249 21.3446C46.5463 21.6187 46.924 22.0149 47.3482 22.5212C48.1952 23.5322 49.1889 24.9357 50.2372 26.5581C52.332 29.8002 54.6155 33.8711 56.3359 37.3131C57.9561 40.5546 59.5023 44.9037 60.6468 48.4589C61.218 50.2331 61.6872 51.8034 62.0136 52.9299C62.1521 53.4082 62.2649 53.8064 62.3488 54.1061H28.7854C28.7847 54.0336 28.784 53.9536 28.7834 53.8666C28.7803 53.3973 28.779 52.7215 28.7866 51.8966C28.8019 50.2462 28.8529 48.0017 28.9955 45.6223C29.1383 43.241 29.3722 40.7347 29.7514 38.5575C30.1346 36.3577 30.654 34.5725 31.3265 33.5735Z" stroke="black"/>
<g filter="url(#filter3_i_17_72)">
<path d="M164.506 33.2943C161.511 28.9151 151.528 20.1569 149.531 20.4488C147.534 20.7408 141.727 30.1777 138.217 37.0895C134.888 43.6438 131.894 54.6061 131.894 54.6061H167.168C167.168 54.6061 167.5 37.6734 164.506 33.2943Z" fill="#FBBCBC"/>
</g>
<path d="M164.093 33.5765C162.633 31.4417 159.428 28.1913 156.317 25.4979C154.765 24.1552 153.254 22.9651 152.013 22.132C151.392 21.7148 150.85 21.395 150.413 21.1901C150.194 21.0877 150.012 21.0189 149.866 20.9798C149.714 20.9392 149.633 20.9392 149.603 20.9436C149.499 20.9588 149.281 21.0584 148.937 21.3471C148.61 21.6215 148.226 22.0179 147.795 22.5242C146.934 23.5353 145.925 24.9388 144.86 26.5612C142.731 29.8032 140.411 33.8741 138.663 37.316C137.016 40.5572 135.445 44.906 134.282 48.4611C133.702 50.2353 133.225 51.8055 132.894 52.932C132.753 53.4092 132.639 53.8067 132.554 54.1061H166.674C166.675 54.0336 166.676 53.9536 166.676 53.8665C166.679 53.3973 166.681 52.7215 166.673 51.8966C166.657 50.2464 166.606 48.002 166.461 45.6228C166.316 43.2416 166.078 40.7356 165.693 38.5589C165.303 36.3594 164.776 34.5751 164.093 33.5765Z" stroke="black"/>
<g filter="url(#filter4_d_17_72)">
<rect x="21" y="54.6061" width="153.46" height="87.3712" rx="8" fill="#2ED4E9"/>
<rect x="21.5" y="55.1061" width="152.46" height="86.3712" rx="7.5" stroke="black"/>
</g>
<path d="M173.96 60.2068V139.177C173.96 140.447 172.93 141.477 171.659 141.477C170.389 141.477 169.359 140.447 169.359 139.177V55.1303C171.941 55.3815 173.96 57.5585 173.96 60.2068Z" fill="#058B9C" stroke="black"/>
<path d="M26.6007 141.477C23.9524 141.477 21.7754 139.459 21.5242 136.877H171.659C172.93 136.877 173.96 137.906 173.96 139.177C173.96 140.447 172.93 141.477 171.659 141.477H26.6007Z" fill="#058B9C" stroke="black"/>
<g filter="url(#filter5_d_17_72)">
<ellipse cx="69.7262" cy="98.2917" rx="28.0036" ry="28.0036" fill="#058B9C"/>
<path d="M97.2298 98.2917C97.2298 113.481 84.9161 125.795 69.7262 125.795C54.5364 125.795 42.2227 113.481 42.2227 98.2917C42.2227 83.1019 54.5364 70.7881 69.7262 70.7881C84.9161 70.7881 97.2298 83.1019 97.2298 98.2917Z" stroke="black"/>
</g>
<path d="M86.0284 98.2917C86.0284 107.295 78.7297 114.594 69.7262 114.594C60.7228 114.594 53.4241 107.295 53.4241 98.2917C53.4241 89.2882 60.7228 81.9895 69.7262 81.9895C78.7297 81.9895 86.0284 89.2882 86.0284 98.2917Z" fill="url(#paint2_linear_17_72)" stroke="black"/>
<path d="M37.2421 77.8491L39.4824 70.2881V90.4507L37.2421 82.8897L33.3216 80.3694L37.2421 77.8491Z" fill="url(#paint3_linear_17_72)"/>
<path d="M41.7227 77.8491L39.4824 70.2881V90.4507L41.7227 82.8897L45.6432 80.3694L41.7227 77.8491Z" fill="url(#paint4_linear_17_72)"/>
<path d="M100.403 110.728L101.93 105.573V119.32L100.403 114.165L97.7298 112.446L100.403 110.728Z" fill="url(#paint5_linear_17_72)"/>
<path d="M103.458 110.728L101.93 105.573V119.32L103.458 114.165L106.131 112.446L103.458 110.728Z" fill="url(#paint6_linear_17_72)"/>
<g filter="url(#filter6_i_17_72)">
<rect x="127.974" y="70.2881" width="29.1237" height="9.52122" rx="2" fill="white"/>
</g>
<rect x="128.474" y="70.7881" width="28.1237" height="8.52122" rx="1.5" stroke="black"/>
<rect x="128.474" y="76.3888" width="28.1237" height="2.9205" rx="1.46025" fill="#EEEEEE" stroke="black"/>
<path d="M133.488 87.0302H151.718C153.676 87.0302 154.874 89.1783 153.845 90.8439L151.671 94.3651C151.215 95.1025 150.41 95.5514 149.544 95.5514H135.767C134.919 95.5514 134.128 95.1215 133.668 94.4095L131.389 90.8883C130.313 89.2249 131.507 87.0302 133.488 87.0302Z" fill="white" stroke="black"/>
<g filter="url(#filter7_d_17_72)">
<path d="M174.18 96.0514V104.172C178.567 103.426 182.021 104.172 185.661 108.093L185.73 108.167C187.544 110.119 192.393 115.336 193.222 125.842C194.061 136.472 187.341 148.245 168.299 152.166C149.256 156.086 145.616 144.045 107.811 138.164C95.2095 136.203 88.4886 138.164 80.0876 144.605C76.6953 147.205 71.6934 149.645 69.7262 160.287C69.7262 169.528 71.2171 172.071 79.5275 165.607C87.0885 159.726 101.184 158.7 112.292 159.166C134.695 158.606 171.995 178.769 196.863 153.006C206.484 143.038 205.087 132.517 204.704 125.002C203.023 114.081 199.663 106.973 193.782 102.212C188.211 97.702 181.461 96.0514 174.18 96.0514Z" fill="url(#paint7_linear_17_72)"/>
<path d="M174.18 96.0514V104.172C178.567 103.426 182.021 104.172 185.661 108.093L185.73 108.167C187.544 110.119 192.393 115.336 193.222 125.842C194.061 136.472 187.341 148.245 168.299 152.166C149.256 156.086 145.616 144.045 107.811 138.164C95.2095 136.203 88.4886 138.164 80.0876 144.605C76.6953 147.205 71.6934 149.645 69.7262 160.287C69.7262 169.528 71.2171 172.071 79.5275 165.607C87.0885 159.726 101.184 158.7 112.292 159.166C134.695 158.606 171.995 178.769 196.863 153.006C206.484 143.038 205.087 132.517 204.704 125.002C203.023 114.081 199.663 106.973 193.782 102.212C188.211 97.702 181.461 96.0514 174.18 96.0514Z" stroke="black" stroke-linecap="round"/>
</g>
<defs>
<filter id="filter0_d_17_72" x="19.9205" y="0" width="58.1662" height="57.6061" filterUnits="userSpaceOnUse" color-interpolation-filters="sRGB">
<feFlood flood-opacity="0" result="BackgroundImageFix"/>
<feColorMatrix in="SourceAlpha" type="matrix" values="0 0 0 0 0 0 0 0 0 0 0 0 0 0 0 0 0 0 127 0" result="hardAlpha"/>
<feOffset dy="-2"/>
<feGaussianBlur stdDeviation="2.5"/>
<feComposite in2="hardAlpha" operator="out"/>
<feColorMatrix type="matrix" values="0 0 0 0 0 0 0 0 0 0 0 0 0 0 0 0 0 0 0.25 0"/>
<feBlend mode="normal" in2="BackgroundImageFix" result="effect1_dropShadow_17_72"/>
<feBlend mode="normal" in="SourceGraphic" in2="effect1_dropShadow_17_72" result="shape"/>
</filter>
<filter id="filter1_d_17_72" x="116.813" y="0" width="58.7262" height="57.6061" filterUnits="userSpaceOnUse" color-interpolation-filters="sRGB">
<feFlood flood-opacity="0" result="BackgroundImageFix"/>
<feColorMatrix in="SourceAlpha" type="matrix" values="0 0 0 0 0 0 0 0 0 0 0 0 0 0 0 0 0 0 127 0" result="hardAlpha"/>
<feOffset dy="-2"/>
<feGaussianBlur stdDeviation="2.5"/>
<feComposite in2="hardAlpha" operator="out"/>
<feColorMatrix type="matrix" values="0 0 0 0 0 0 0 0 0 0 0 0 0 0 0 0 0 0 0.25 0"/>
<feBlend mode="normal" in2="BackgroundImageFix" result="effect1_dropShadow_17_72"/>
<feBlend mode="normal" in="SourceGraphic" in2="effect1_dropShadow_17_72" result="shape"/>
</filter>
<filter id="filter2_i_17_72" x="28.2809" y="20.4417" width="34.7244" height="38.1644" filterUnits="userSpaceOnUse" color-interpolation-filters="sRGB">
<feFlood flood-opacity="0" result="BackgroundImageFix"/>
<feBlend mode="normal" in="SourceGraphic" in2="BackgroundImageFix" result="shape"/>
<feColorMatrix in="SourceAlpha" type="matrix" values="0 0 0 0 0 0 0 0 0 0 0 0 0 0 0 0 0 0 127 0" result="hardAlpha"/>
<feOffset dy="4"/>
<feGaussianBlur stdDeviation="2"/>
<feComposite in2="hardAlpha" operator="arithmetic" k2="-1" k3="1"/>
<feColorMatrix type="matrix" values="0 0 0 0 0 0 0 0 0 0 0 0 0 0 0 0 0 0 0.25 0"/>
<feBlend mode="normal" in2="shape" result="effect1_innerShadow_17_72"/>
</filter>
<filter id="filter3_i_17_72" x="131.894" y="20.4417" width="35.2845" height="38.1644" filterUnits="userSpaceOnUse" color-interpolation-filters="sRGB">
<feFlood flood-opacity="0" result="BackgroundImageFix"/>
<feBlend mode="normal" in="SourceGraphic" in2="BackgroundImageFix" result="shape"/>
<feColorMatrix in="SourceAlpha" type="matrix" values="0 0 0 0 0 0 0 0 0 0 0 0 0 0 0 0 0 0 127 0" result="hardAlpha"/>
<feOffset dy="4"/>
<feGaussianBlur stdDeviation="2"/>
<feComposite in2="hardAlpha" operator="arithmetic" k2="-1" k3="1"/>
<feColorMatrix type="matrix" values="0 0 0 0 0 0 0 0 0 0 0 0 0 0 0 0 0 0 0.25 0"/>
<feBlend mode="normal" in2="shape" result="effect1_innerShadow_17_72"/>
</filter>
<filter id="filter4_d_17_72" x="0" y="33.6061" width="195.46" height="129.371" filterUnits="userSpaceOnUse" color-interpolation-filters="sRGB">
<feFlood flood-opacity="0" result="BackgroundImageFix"/>
<feColorMatrix in="SourceAlpha" type="matrix" values="0 0 0 0 0 0 0 0 0 0 0 0 0 0 0 0 0 0 127 0" result="hardAlpha"/>
<feMorphology radius="5" operator="dilate" in="SourceAlpha" result="effect1_dropShadow_17_72"/>
<feOffset/>
<feGaussianBlur stdDeviation="8"/>
<feComposite in2="hardAlpha" operator="out"/>
<feColorMatrix type="matrix" values="0 0 0 0 0 0 0 0 0 0 0 0 0 0 0 0 0 0 0.25 0"/>
<feBlend mode="normal" in2="BackgroundImageFix" result="effect1_dropShadow_17_72"/>
<feBlend mode="normal" in="SourceGraphic" in2="effect1_dropShadow_17_72" result="shape"/>
</filter>
<filter id="filter5_d_17_72" x="37.7227" y="70.2881" width="64.0072" height="64.0071" filterUnits="userSpaceOnUse" color-interpolation-filters="sRGB">
<feFlood flood-opacity="0" result="BackgroundImageFix"/>
<feColorMatrix in="SourceAlpha" type="matrix" values="0 0 0 0 0 0 0 0 0 0 0 0 0 0 0 0 0 0 127 0" result="hardAlpha"/>
<feOffset dy="4"/>
<feGaussianBlur stdDeviation="2"/>
<feComposite in2="hardAlpha" operator="out"/>
<feColorMatrix type="matrix" values="0 0 0 0 0 0 0 0 0 0 0 0 0 0 0 0 0 0 0.25 0"/>
<feBlend mode="normal" in2="BackgroundImageFix" result="effect1_dropShadow_17_72"/>
<feBlend mode="normal" in="SourceGraphic" in2="effect1_dropShadow_17_72" result="shape"/>
</filter>
<filter id="filter6_i_17_72" x="127.974" y="70.2881" width="29.1237" height="13.5212" filterUnits="userSpaceOnUse" color-interpolation-filters="sRGB">
<feFlood flood-opacity="0" result="BackgroundImageFix"/>
<feBlend mode="normal" in="SourceGraphic" in2="BackgroundImageFix" result="shape"/>
<feColorMatrix in="SourceAlpha" type="matrix" values="0 0 0 0 0 0 0 0 0 0 0 0 0 0 0 0 0 0 127 0" result="hardAlpha"/>
<feOffset dy="4"/>
<feGaussianBlur stdDeviation="2"/>
<feComposite in2="hardAlpha" operator="arithmetic" k2="-1" k3="1"/>
<feColorMatrix type="matrix" values="0 0 0 0 0 0 0 0 0 0 0 0 0 0 0 0 0 0 0.25 0"/>
<feBlend mode="normal" in2="shape" result="effect1_innerShadow_17_72"/>
</filter>
<filter id="filter7_d_17_72" x="62.2262" y="88.5514" width="152.275" height="90.1495" filterUnits="userSpaceOnUse" color-interpolation-filters="sRGB">
<feFlood flood-opacity="0" result="BackgroundImageFix"/>
<feColorMatrix in="SourceAlpha" type="matrix" values="0 0 0 0 0 0 0 0 0 0 0 0 0 0 0 0 0 0 127 0" result="hardAlpha"/>
<feOffset dx="1" dy="1"/>
<feGaussianBlur stdDeviation="4"/>
<feComposite in2="hardAlpha" operator="out"/>
<feColorMatrix type="matrix" values="0 0 0 0 0 0 0 0 0 0 0 0 0 0 0 0 0 0 0.25 0"/>
<feBlend mode="normal" in2="BackgroundImageFix" result="effect1_dropShadow_17_72"/>
<feBlend mode="normal" in="SourceGraphic" in2="effect1_dropShadow_17_72" result="shape"/>
</filter>
<linearGradient id="paint0_linear_17_72" x1="49.0036" y1="7" x2="49.0036" y2="54.6061" gradientUnits="userSpaceOnUse">
<stop stop-color="#A5A5A5"/>
<stop offset="1" stop-color="#DDDDDD"/>
</linearGradient>
<linearGradient id="paint1_linear_17_72" x1="146.176" y1="7" x2="146.176" y2="54.6061" gradientUnits="userSpaceOnUse">
<stop stop-color="#A0A0A0"/>
<stop offset="1" stop-color="#D9D9D9"/>
</linearGradient>
<linearGradient id="paint2_linear_17_72" x1="74.9769" y1="88.2104" x2="59.2249" y2="110.893" gradientUnits="userSpaceOnUse">
<stop offset="0.140625" stop-color="#F0F0F0"/>
<stop offset="0.916667" stop-color="#70BEF5"/>
</linearGradient>
<linearGradient id="paint3_linear_17_72" x1="36.542" y1="85.6901" x2="43.2068" y2="72.3604" gradientUnits="userSpaceOnUse">
<stop stop-color="#FCFF79"/>
<stop offset="0.369118" stop-color="#F6F7EF"/>
<stop offset="0.655396" stop-color="#FCFF79"/>
<stop offset="0.9999" stop-color="#FBFF23" stop-opacity="0.390625"/>
</linearGradient>
<linearGradient id="paint4_linear_17_72" x1="42.4227" y1="85.6901" x2="35.7579" y2="72.3604" gradientUnits="userSpaceOnUse">
<stop stop-color="#FCFF79"/>
<stop offset="0.369118" stop-color="#F6F7EF"/>
<stop offset="0.655396" stop-color="#FCFF79"/>
<stop offset="0.9999" stop-color="#FBFF23" stop-opacity="0.390625"/>
</linearGradient>
<linearGradient id="paint5_linear_17_72" x1="99.9256" y1="116.074" x2="104.47" y2="106.986" gradientUnits="userSpaceOnUse">
<stop stop-color="#FCFF79"/>
<stop offset="0.369118" stop-color="#F6F7EF"/>
<stop offset="0.655396" stop-color="#FCFF79"/>
<stop offset="0.9999" stop-color="#FBFF23" stop-opacity="0.390625"/>
</linearGradient>
<linearGradient id="paint6_linear_17_72" x1="103.935" y1="116.074" x2="99.3909" y2="106.986" gradientUnits="userSpaceOnUse">
<stop stop-color="#FCFF79"/>
<stop offset="0.369118" stop-color="#F6F7EF"/>
<stop offset="0.655396" stop-color="#FCFF79"/>
<stop offset="0.9999" stop-color="#FBFF23" stop-opacity="0.390625"/>
</linearGradient>
<linearGradient id="paint7_linear_17_72" x1="178.38" y1="118.174" x2="106.131" y2="145.338" gradientUnits="userSpaceOnUse">
<stop stop-color="#D9D9D9"/>
<stop offset="1" stop-color="#919191"/>
</linearGradient>
</defs>
</svg>
